<svg width="200" height="200" viewBox="0 0 200 200" fill="none" xmlns="http://www.w3.org/2000/svg">
<rect width="200" height="200" fill="#3C3682"/>
<path d="M87.0898 104.941L92.7393 90.1284H97.2871L88.3789 112.493C87.9068 113.685 87.3095 114.729 86.5889 115.624C85.8931 116.543 85.0608 117.251 84.0918 117.748C83.1475 118.245 82.0295 118.494 80.7373 118.494C80.2403 118.494 79.7431 118.444 79.2461 118.344C78.7741 118.27 78.3389 118.145 77.9414 117.971V114.356C78.2395 114.43 78.6002 114.493 79.0225 114.542C79.4449 114.617 79.8553 114.655 80.2529 114.655C81.4206 114.655 82.2775 114.393 82.8242 113.872C83.3957 113.375 83.9053 112.604 84.3525 111.561L84.916 110.276L76.8984 90.1284H81.4082L87.0898 104.941ZM136.056 89.5454C137.724 89.5454 139.193 89.8566 140.463 90.479C141.732 91.0765 142.716 91.9228 143.413 93.0181C144.135 94.0887 144.496 95.3465 144.496 96.7905V110.311H139.865V108.178C139.607 108.463 139.333 108.726 139.043 108.966C138.321 109.539 137.499 109.987 136.578 110.311C135.657 110.61 134.636 110.759 133.516 110.759C132.096 110.759 130.864 110.522 129.818 110.049C128.773 109.576 127.963 108.904 127.391 108.033C126.818 107.136 126.531 106.103 126.531 104.933C126.531 103.813 126.78 102.816 127.278 101.945C127.776 101.049 128.548 100.301 129.594 99.7036C130.639 99.1061 131.959 98.6831 133.553 98.4341L139.604 97.4478V96.7905C139.603 95.9192 139.255 95.1971 138.558 94.6245C137.885 94.027 136.989 93.728 135.868 93.728C134.823 93.7281 133.889 94.0148 133.067 94.5874C132.271 95.1352 131.685 95.8693 131.312 96.7905L127.315 94.8481C127.714 93.7777 128.336 92.8563 129.183 92.0845C130.054 91.2877 131.076 90.6655 132.246 90.2173C133.416 89.7692 134.686 89.5454 136.056 89.5454ZM66.9688 89.6812C68.4844 89.6812 69.8386 89.9426 71.0312 90.4644C72.2237 90.9861 73.2299 91.7064 74.0498 92.6255C74.8698 93.52 75.4916 94.5514 75.9141 95.7192C76.3613 96.8871 76.585 98.1298 76.585 99.4468C76.585 99.7698 76.5727 100.106 76.5479 100.454C76.523 100.801 76.473 101.124 76.3984 101.422H61.3936C61.4416 102.287 61.632 103.071 61.9736 103.771C62.4954 104.79 63.2164 105.584 64.1357 106.156C65.0799 106.727 66.1482 107.013 67.3408 107.013C68.5584 107.013 69.5897 106.74 70.4346 106.193C71.3042 105.646 71.9874 104.938 72.4844 104.069L75.9141 105.746C75.5165 106.69 74.8947 107.548 74.0498 108.318C73.2298 109.063 72.2361 109.66 71.0684 110.107C69.9253 110.529 68.6704 110.741 67.3037 110.741C65.2911 110.741 63.5019 110.281 61.9365 109.362C60.396 108.418 59.191 107.15 58.3213 105.56C57.4516 103.945 57.0166 102.143 57.0166 100.155C57.0166 98.1173 57.4516 96.3159 58.3213 94.7505C59.2158 93.1851 60.4085 91.9546 61.8994 91.0601C63.3903 90.1408 65.0804 89.6812 66.9688 89.6812ZM156.807 96.3062L161.083 89.9927H166.798L159.701 100.114L166.761 110.31H161.046L156.807 103.994L152.567 110.31H146.815L153.912 100.114L146.778 89.9927H152.53L156.807 96.3062ZM37.6016 94.7505H50.4609V82.5249H54.8213V110.293H50.4609V98.6646H37.6016V110.293H33.2031V82.5249H37.6016V94.7505ZM104.203 86.021C104.203 90.0979 107.584 94.4015 111.844 94.4019C115.971 94.4019 119.273 90.363 119.476 86.4038L119.485 86.021V82.2876H123.958V110.243H119.485V95.939C117.395 97.8498 114.732 99.0601 111.844 99.0601C108.956 99.0599 106.293 97.8496 104.203 95.939V110.243H99.7305V82.2876H104.203V86.021ZM134.486 102.057C133.515 102.231 132.793 102.543 132.32 102.991C131.847 103.439 131.61 104.025 131.61 104.747C131.61 105.444 131.873 106.004 132.396 106.427C132.943 106.825 133.616 107.025 134.412 107.025C135.433 107.025 136.33 106.812 137.102 106.389C137.898 105.941 138.508 105.331 138.932 104.559C139.38 103.787 139.603 102.941 139.604 102.02V101.187L134.486 102.057ZM66.9688 93.2222C65.8505 93.2222 64.856 93.5081 63.9863 94.0796C63.1167 94.6263 62.4457 95.4217 61.9736 96.4653C61.7495 96.9491 61.5904 97.4833 61.4951 98.0679H72.1328C72.1066 97.4535 71.9758 96.8817 71.7393 96.353C71.3417 95.3841 70.7207 94.6262 69.876 94.0796C69.0561 93.5081 68.0868 93.2222 66.9688 93.2222Z" fill="#F3EAFF"/>
</svg>
