<svg width="200" height="200" viewBox="0 0 200 200" fill="none" xmlns="http://www.w3.org/2000/svg">
<rect width="200" height="200" rx="100" fill="#F6F6FC"/>
<path d="M87.0894 104.941L92.7388 90.1284H97.2866L88.3784 112.493C87.9063 113.685 87.309 114.729 86.5884 115.624C85.8927 116.543 85.0603 117.251 84.0913 117.748C83.147 118.245 82.029 118.494 80.7368 118.494C80.2399 118.494 79.7426 118.444 79.2456 118.344C78.7736 118.27 78.3384 118.145 77.9409 117.971V114.356C78.239 114.43 78.5997 114.493 79.022 114.542C79.4444 114.617 79.8549 114.655 80.2524 114.655C81.4201 114.655 82.2771 114.393 82.8237 113.872C83.3952 113.375 83.9048 112.604 84.3521 111.561L84.9155 110.276L76.8979 90.1284H81.4077L87.0894 104.941ZM136.055 89.5454C137.723 89.5454 139.193 89.8566 140.462 90.479C141.732 91.0765 142.715 91.9228 143.413 93.0181C144.135 94.0887 144.496 95.3465 144.496 96.7905V110.311H139.865V108.178C139.607 108.463 139.333 108.726 139.042 108.966C138.32 109.539 137.499 109.987 136.578 110.311C135.656 110.61 134.636 110.759 133.515 110.759C132.096 110.759 130.864 110.522 129.818 110.049C128.772 109.576 127.963 108.904 127.39 108.033C126.817 107.136 126.531 106.103 126.531 104.933C126.531 103.813 126.78 102.816 127.278 101.945C127.776 101.049 128.548 100.301 129.593 99.7036C130.639 99.1061 131.959 98.6831 133.552 98.4341L139.603 97.4478V96.7905C139.603 95.9192 139.254 95.1971 138.557 94.6245C137.885 94.027 136.988 93.728 135.868 93.728C134.822 93.7281 133.888 94.0148 133.067 94.5874C132.27 95.1352 131.685 95.8693 131.311 96.7905L127.315 94.8481C127.713 93.7777 128.336 92.8563 129.182 92.0845C130.054 91.2877 131.075 90.6655 132.246 90.2173C133.416 89.7692 134.686 89.5454 136.055 89.5454ZM66.9683 89.6812C68.4839 89.6812 69.8381 89.9426 71.0308 90.4644C72.2232 90.9861 73.2294 91.7064 74.0493 92.6255C74.8693 93.52 75.4911 94.5514 75.9136 95.7192C76.3608 96.8871 76.5845 98.1298 76.5845 99.4468C76.5845 99.7698 76.5722 100.106 76.5474 100.454C76.5225 100.801 76.4725 101.124 76.3979 101.422H61.3931C61.4411 102.287 61.6315 103.071 61.9731 103.771C62.495 104.79 63.2159 105.584 64.1353 106.156C65.0794 106.727 66.1477 107.013 67.3403 107.013C68.5579 107.013 69.5892 106.74 70.4341 106.193C71.3037 105.646 71.9869 104.938 72.4839 104.069L75.9136 105.746C75.516 106.69 74.8942 107.548 74.0493 108.318C73.2293 109.063 72.2357 109.66 71.0679 110.107C69.9248 110.529 68.6699 110.741 67.3032 110.741C65.2906 110.741 63.5015 110.281 61.936 109.362C60.3956 108.418 59.1905 107.15 58.3208 105.56C57.4511 103.945 57.0161 102.143 57.0161 100.155C57.0162 98.1173 57.4511 96.3159 58.3208 94.7505C59.2154 93.1851 60.408 91.9546 61.8989 91.0601C63.3898 90.1408 65.0799 89.6812 66.9683 89.6812ZM156.806 96.3062L161.083 89.9927H166.797L159.701 100.114L166.76 110.31H161.045L156.806 103.994L152.567 110.31H146.815L153.912 100.114L146.778 89.9927H152.53L156.806 96.3062ZM37.6011 94.7505H50.4604V82.5249H54.8208V110.293H50.4604V98.6646H37.6011V110.293H33.2026V82.5249H37.6011V94.7505ZM104.203 86.021C104.203 90.0979 107.583 94.4015 111.843 94.4019C115.971 94.4019 119.273 90.363 119.475 86.4038L119.485 86.021V82.2876H123.958V110.243H119.485V95.939C117.395 97.8498 114.731 99.0601 111.843 99.0601C108.956 99.0599 106.293 97.8496 104.203 95.939V110.243H99.73V82.2876H104.203V86.021ZM134.486 102.057C133.515 102.231 132.793 102.543 132.32 102.991C131.847 103.439 131.61 104.025 131.61 104.747C131.61 105.444 131.872 106.004 132.395 106.427C132.943 106.825 133.615 107.025 134.412 107.025C135.432 107.025 136.329 106.812 137.101 106.389C137.898 105.941 138.508 105.331 138.931 104.559C139.379 103.787 139.603 102.941 139.603 102.02V101.187L134.486 102.057ZM66.9683 93.2222C65.8501 93.2222 64.8556 93.5081 63.9858 94.0796C63.1162 94.6263 62.4453 95.4217 61.9731 96.4653C61.749 96.9491 61.5899 97.4833 61.4946 98.0679H72.1323C72.1061 97.4535 71.9753 96.8817 71.7388 96.353C71.3412 95.3841 70.7202 94.6262 69.8755 94.0796C69.0556 93.5081 68.0863 93.2222 66.9683 93.2222Z" fill="#21005E"/>
</svg>
