<svg xmlns="http://www.w3.org/2000/svg" viewBox="0 0 1200 400"><rect width="1200" height="400" rx="28" fill="#21005E"/><svg x="355.4" y="133.3" width="489.3" height="133.3" viewBox="0 0 400 109"><path d="M339.058 85.9171L360.701 54.8196L338.944 23.95H356.486L373.459 49.0102H365.599L382.571 23.95H400L378.357 54.8196L399.886 85.9171H382.457L365.713 60.9708H373.345L356.6 85.9171H339.058Z" fill="#F4F4F4"/>
<path d="M298.494 87.2829C294.166 87.2829 290.407 86.5614 287.217 85.1186C284.028 83.6757 281.56 81.6253 279.813 78.9674C278.066 76.2336 277.193 73.0821 277.193 69.5129C277.193 66.0956 277.952 63.058 279.471 60.4001C280.99 57.6663 283.344 55.3881 286.534 53.5655C289.723 51.7429 293.748 50.452 298.608 49.6926L318.884 46.3892V57.7802L301.456 60.7418C298.494 61.2734 296.292 62.2227 294.849 63.5896C293.406 64.9565 292.685 66.7411 292.685 68.9434C292.685 71.0697 293.482 72.7783 295.077 74.0693C296.748 75.2843 298.798 75.8919 301.228 75.8919C304.342 75.8919 307.076 75.2464 309.43 73.9554C311.86 72.5885 313.72 70.728 315.011 68.3738C316.378 66.0197 317.062 63.4377 317.062 60.6279V44.6805C317.062 42.0226 315.998 39.8204 313.872 38.0737C311.822 36.2512 309.088 35.3399 305.671 35.3399C302.481 35.3399 299.633 36.2132 297.127 37.9598C294.697 39.6305 292.913 41.8707 291.774 44.6805L279.585 38.7572C280.8 35.4918 282.699 32.682 285.281 30.3278C287.939 27.8978 291.052 25.9993 294.621 24.6323C298.191 23.2654 302.063 22.582 306.24 22.582C311.328 22.582 315.809 23.5312 319.682 25.4297C323.555 27.2523 326.554 29.8342 328.68 33.1756C330.883 36.441 331.984 40.276 331.984 44.6805V85.916H317.859V75.3223L321.048 75.0945C319.454 77.7524 317.555 79.9926 315.353 81.8152C313.151 83.5618 310.645 84.9287 307.835 85.916C305.025 86.8272 301.912 87.2829 298.494 87.2829Z" fill="#F4F4F4"/>
<path d="M137.209 108.976C136.146 108.976 134.969 108.863 133.678 108.635C132.463 108.483 131.286 108.217 130.147 107.837V101.458C131.058 101.686 132.083 101.876 133.222 102.028C134.437 102.18 135.539 102.256 136.526 102.256C140.247 102.18 143.171 101.269 145.297 99.5219C147.423 97.7753 149.36 94.8896 151.106 90.8648L155.435 80.7268V87.1057L129.805 23.43H137.323L159.308 78.3347H156.574L178.673 23.43H186.304L158.055 92.3456C156.992 94.8516 155.587 97.3956 153.84 99.9776C152.093 102.56 149.853 104.686 147.119 106.357C144.462 108.103 141.158 108.976 137.209 108.976Z" fill="#F4F4F4"/>
<path d="M101.869 85.2832C96.1738 85.2832 91.0479 83.9163 86.4915 81.1824C81.9351 78.3726 78.3279 74.5756 75.67 69.7914C73.0121 64.9312 71.6832 59.5015 71.6832 53.5023C71.6832 47.503 72.9742 42.1492 75.5561 37.4409C78.1381 32.6567 81.6313 28.8977 86.0358 26.1638C90.4404 23.43 95.3765 22.0631 100.844 22.0631C105.021 22.0631 108.78 22.8225 112.121 24.3413C115.539 25.8601 118.462 27.9864 120.892 30.7202C123.398 33.3782 125.297 36.4537 126.588 39.947C127.955 43.3643 128.638 46.9714 128.638 50.7684C128.638 51.5278 128.6 52.3252 128.524 53.1605C128.448 53.9959 128.334 54.8692 128.183 55.7805H75.67V49.5154H124.31L121.234 51.9075C121.69 47.503 121.044 43.5541 119.298 40.0609C117.551 36.4917 115.045 33.6819 111.78 31.6315C108.59 29.5052 104.945 28.442 100.844 28.442C96.7434 28.442 92.9844 29.5432 89.5671 31.7454C86.1497 33.8718 83.4539 36.8334 81.4794 40.6304C79.505 44.3515 78.5937 48.6801 78.7456 53.6162C78.5937 58.5523 79.543 62.9188 81.5933 66.7158C83.6437 70.5128 86.4535 73.5125 90.0227 75.7147C93.5919 77.841 97.5408 78.9042 101.869 78.9042C106.274 78.9042 110.109 77.879 113.374 75.8286C116.64 73.7023 119.298 70.8925 121.348 67.3993L127.157 70.4749C125.79 73.2846 123.854 75.8286 121.348 78.1068C118.842 80.3091 115.918 82.0557 112.577 83.3467C109.311 84.6377 105.742 85.2832 101.869 85.2832Z" fill="#F4F4F4"/>
<path d="M0 84.863V0H7.40416V38.6155H55.2464V0H62.6505V84.863H55.2464V45.4501H7.40416V84.863H0Z" fill="#F4F4F4"/>
<path d="M194.229 0.317823H207.876V85.6115H194.229V0.317823Z" fill="#F4F4F4"/>
<path d="M254.503 0.317823H268.15V85.6115H254.503V0.317823Z" fill="#F4F4F4"/>
<path d="M231.19 52.1619C210.9 52.1619 194.229 33.208 194.229 12.9873L207.876 12.9873C207.876 25.4271 218.191 38.5149 231.19 38.5149C244.188 38.5149 254.503 25.4271 254.503 12.9873L268.15 12.9873C268.15 33.208 251.479 52.1619 231.19 52.1619Z" fill="url(#paint0_linear_1181_1876)"/>
<defs>
<linearGradient id="paint0_linear_1181_1876" x1="231.19" y1="32.3626" x2="231.19" y2="77.3999" gradientUnits="userSpaceOnUse">
<stop stop-color="#F4F4F4"/>
<stop offset="0.977346" stop-color="#009BFF"/>
</linearGradient>
</defs></svg></svg>