<svg width="395" height="108" viewBox="0 0 395 108" fill="none" xmlns="http://www.w3.org/2000/svg">
<path d="M155.669 74.3525L176.099 23.5957H183.62L155.778 91.5186C154.731 93.9884 153.345 96.4954 151.624 99.04C149.903 101.585 147.694 103.681 145 105.327C142.38 107.049 139.124 107.91 135.232 107.91C134.185 107.91 133.024 107.798 131.752 107.573C130.555 107.424 129.395 107.161 128.272 106.787V100.5C129.171 100.724 130.181 100.912 131.304 101.062C132.501 101.211 133.587 101.286 134.56 101.286C138.227 101.211 141.109 100.313 143.204 98.5918C145.3 96.8703 147.208 94.0254 148.93 90.0586L151.893 83.1182L127.936 23.5957H135.345L155.669 74.3525ZM301.828 21.7881C306.843 21.7881 311.259 22.7236 315.076 24.5947C318.893 26.391 321.85 28.9363 323.945 32.2295C326.116 35.4478 327.201 39.2274 327.201 43.5684V84.21H313.28V77.8018C312.505 78.6566 311.682 79.4461 310.81 80.168C308.639 81.8893 306.17 83.237 303.4 84.21C300.631 85.1081 297.562 85.5566 294.194 85.5566C289.928 85.5566 286.223 84.8459 283.079 83.4238C279.936 82.0018 277.504 79.9808 275.782 77.3613C274.061 74.6669 273.2 71.5607 273.2 68.043C273.2 64.675 273.948 61.6811 275.445 59.0615C276.942 56.3671 279.263 54.1215 282.406 52.3252C285.55 50.529 289.517 49.2572 294.307 48.5088L312.494 45.5449V43.5684C312.494 40.9488 311.446 38.7781 309.351 37.0566C307.33 35.2603 304.635 34.3623 301.267 34.3623C298.123 34.3624 295.316 35.223 292.847 36.9443C290.452 38.5909 288.693 40.7991 287.57 43.5684L275.558 37.7305C276.755 34.5122 278.626 31.743 281.171 29.4229C283.79 27.0278 286.859 25.1568 290.377 23.8096C293.895 22.4624 297.712 21.7881 301.828 21.7881ZM99.3916 22.248C103.508 22.2481 107.213 22.9972 110.506 24.4941C113.874 25.9911 116.755 28.0868 119.15 30.7812C121.62 33.4008 123.492 36.4321 124.765 39.875C126.112 43.2429 126.785 46.798 126.785 50.54C126.785 51.2884 126.748 52.0743 126.673 52.8975C126.598 53.7206 126.486 54.5815 126.336 55.4795H77.6201C77.7674 59.479 78.6976 63.0719 80.418 66.2578C82.4388 70 85.208 72.9564 88.7256 75.127C92.2433 77.2226 96.1361 78.2705 100.402 78.2705C104.743 78.2704 108.523 77.26 111.741 75.2393C114.959 73.1436 117.579 70.3744 119.6 66.9316L125.325 69.9629C123.978 72.732 122.069 75.2391 119.6 77.4844C117.13 79.6549 114.248 81.377 110.955 82.6494C107.737 83.9217 104.219 84.5576 100.402 84.5576C94.789 84.5576 89.7368 83.21 85.2461 80.5156C80.7554 77.7463 77.1997 74.0043 74.5801 69.2891C71.9605 64.4989 70.6504 59.1472 70.6504 53.2344C70.6504 47.3216 71.923 42.0447 74.4678 37.4043C77.0125 32.6891 80.4559 28.9844 84.7969 26.29C89.1379 23.5957 94.0028 22.248 99.3916 22.248ZM364.205 42.1162L377.06 23.1367H394.237L372.905 53.5615L394.125 84.2109H376.947L364.204 65.2266L351.462 84.2109H334.173L355.504 53.5615L334.061 23.1367H351.351L364.205 42.1162ZM7.29785 38.5625H54.4502V0.50293H61.748V84.1436H54.4502V45.2979H7.29785V84.1436H0V0.50293H7.29785V38.5625ZM206.226 11.2256L206.232 11.8008C206.543 23.8823 216.587 36.417 229.193 36.417C242 36.4169 252.161 23.481 252.161 11.2256V0H265.606V84.0303H252.161V41.041C245.879 46.7835 237.873 50.4189 229.193 50.4189C220.514 50.4189 212.508 46.7835 206.226 41.041V84.0303H192.78V0H206.226V11.2256ZM297.113 59.3984C294.194 59.9224 292.024 60.8579 290.602 62.2051C289.18 63.5522 288.469 65.3111 288.469 67.4814C288.469 69.5771 289.254 71.2618 290.826 72.5342C292.473 73.7316 294.494 74.3301 296.889 74.3301C299.957 74.3301 302.652 73.6941 304.972 72.4219C307.367 71.0746 309.2 69.2401 310.473 66.9199C311.82 64.5998 312.494 62.0554 312.494 59.2861V56.7842L297.113 59.3984ZM99.3916 28.5352C95.3501 28.5352 91.6453 29.6207 88.2773 31.791C84.9093 33.8867 82.2516 36.8056 80.3057 40.5479C78.9184 43.1623 78.0674 46.0817 77.7451 49.3047H119.625C119.664 45.9003 118.983 42.7946 117.579 39.9873C115.858 36.4695 113.387 33.6996 110.169 31.6787C107.026 29.5832 103.433 28.5352 99.3916 28.5352Z" fill="#F5F5F5"/>
</svg>
