<svg width="395" height="108" viewBox="0 0 395 108" fill="none" xmlns="http://www.w3.org/2000/svg">
<path d="M155.669 74.3389L176.098 23.582H183.62L155.777 91.5049C154.73 93.9747 153.344 96.4817 151.623 99.0264C150.009 101.412 147.968 103.404 145.499 105L144.501 105.627C141.971 107.14 138.881 107.896 135.232 107.896C134.185 107.896 133.024 107.784 131.752 107.56C130.554 107.41 129.394 107.148 128.271 106.773V100.486C129.17 100.711 130.18 100.898 131.303 101.048C132.5 101.198 133.586 101.272 134.559 101.272C138.226 101.198 141.107 100.299 143.203 98.5781C145.299 96.8567 147.207 94.0118 148.929 90.0449L151.893 83.1035L127.935 23.582H135.345L155.669 74.3389ZM301.766 21.6768C306.78 21.6768 311.197 22.6122 315.014 24.4834C318.831 26.2797 321.787 28.8241 323.883 32.1172C326.053 35.3356 327.139 39.116 327.139 43.457V84.0977H313.217V77.6904C312.441 78.545 311.619 79.335 310.747 80.0566C308.577 81.7779 306.107 83.1247 303.338 84.0977C300.569 84.9958 297.5 85.4453 294.132 85.4453C289.866 85.4453 286.16 84.7336 283.017 83.3115C279.873 81.8895 277.441 79.8685 275.72 77.249C273.998 74.5547 273.137 71.4491 273.137 67.9316C273.137 64.5636 273.886 61.5688 275.383 58.9492C276.88 56.2551 279.2 54.01 282.343 52.2139C285.486 50.4176 289.454 49.1449 294.244 48.3965L312.432 45.4326V43.457C312.432 40.8376 311.384 38.6667 309.288 36.9453C307.267 35.149 304.572 34.251 301.204 34.251C298.061 34.251 295.254 35.1116 292.784 36.833C290.389 38.4796 288.63 40.6878 287.508 43.457L275.495 37.6182C276.693 34.4 278.564 31.6307 281.108 29.3105C283.728 26.9155 286.797 25.0445 290.314 23.6973C293.832 22.3501 297.649 21.6768 301.766 21.6768ZM99.3916 22.2344C103.508 22.2344 107.213 22.9827 110.506 24.4795C113.874 25.9764 116.755 28.0723 119.15 30.7666C121.62 33.3861 123.491 36.4176 124.764 39.8604C126.111 43.2284 126.785 46.7841 126.785 50.5264C126.785 51.2748 126.748 52.0606 126.673 52.8838C126.598 53.707 126.486 54.5678 126.336 55.4658H77.6191C77.7665 59.4653 78.6976 63.0583 80.418 66.2441C82.4388 69.9863 85.2079 72.9428 88.7256 75.1133C92.2433 77.2089 96.1352 78.2568 100.401 78.2568C104.742 78.2568 108.523 77.2464 111.741 75.2256C114.959 73.13 117.579 70.3607 119.6 66.918L125.325 69.9492C123.978 72.7183 122.069 75.2254 119.6 77.4707C117.13 79.6412 114.248 81.3624 110.955 82.6348C107.737 83.9071 104.219 84.5439 100.401 84.5439C94.788 84.5439 89.7358 83.1964 85.2451 80.502C80.7545 77.7327 77.1996 73.9905 74.5801 69.2754C71.9605 64.4853 70.6504 59.1335 70.6504 53.2207C70.6504 47.3079 71.923 42.0311 74.4678 37.3906C77.0125 32.6756 80.4551 28.9708 84.7959 26.2764C89.137 23.5819 94.0027 22.2344 99.3916 22.2344ZM265.466 84.0303H252.021V41.5547C245.738 47.2971 237.732 50.9326 229.053 50.9326C220.329 50.9326 212.285 47.2617 205.988 41.4688V84.1846H192.544V0.155273H205.988V11.7393H206.084C206.084 23.9947 216.247 36.9307 229.053 36.9307C241.659 36.9305 251.703 24.3959 252.014 12.3145L252.021 11.7393V0H265.466V84.0303ZM7.29785 38.5488H54.4502V0.489258H61.748V84.1299H54.4502V45.2842H7.29785V84.1299H0V0.489258H7.29785V38.5488ZM364.205 41.9512L377.061 22.9717H394.237L372.906 53.3965L394.125 84.0459H376.948L364.205 65.0615L351.463 84.0459H334.174L355.505 53.3965L334.062 22.9717H351.351L364.205 41.9512ZM297.051 59.2861C294.132 59.81 291.961 60.7457 290.539 62.0928C289.117 63.44 288.405 65.1996 288.405 67.3701C288.405 69.4657 289.192 71.1496 290.764 72.4219C292.41 73.6193 294.431 74.2178 296.826 74.2178C299.895 74.2177 302.589 73.5819 304.909 72.3096C307.304 70.9624 309.138 69.1287 310.41 66.8086C311.757 64.4884 312.432 61.9431 312.432 59.1738V56.6719L297.051 59.2861ZM99.3916 28.5215C95.3499 28.5215 91.6444 29.6068 88.2764 31.7773C84.9084 33.873 82.2516 36.792 80.3057 40.5342C78.9184 43.1487 78.0664 46.0679 77.7441 49.291H119.624C119.664 45.8864 118.983 42.7801 117.579 39.9727C115.858 36.455 113.387 33.6858 110.169 31.665C107.026 29.5695 103.433 28.5216 99.3916 28.5215Z" fill="#313131"/>
</svg>
