<svg width="126" height="200" viewBox="0 0 126 200" fill="none" xmlns="http://www.w3.org/2000/svg">
<path d="M0 62.963C0 28.1895 28.1895 0 62.963 0C97.7365 0 125.926 28.1895 125.926 62.963V137.037C125.926 171.811 97.7365 200 62.963 200C28.1895 200 0 171.811 0 137.037V62.963Z" fill="#130739"/>
<path d="M22.4443 54.3203H37.4073V146.913H22.4443V54.3203Z" fill="#F5F5F5"/>
<path d="M88.5308 54.3203H103.494V146.913H88.5308V54.3203Z" fill="#F5F5F5"/>
<path d="M62.9691 109.878C40.7229 109.878 22.4444 92.3233 22.4444 70.3723H37.4073C37.4073 83.8765 48.7167 95.0636 62.9691 95.0636C77.2214 95.0636 88.5308 83.8765 88.5308 70.3723H103.494C103.494 92.3233 85.2152 109.878 62.9691 109.878Z" fill="#F5F5F5"/>
</svg>
