<svg width="131" height="200" viewBox="0 0 131 200" fill="none" xmlns="http://www.w3.org/2000/svg">
<path d="M65.2178 0C101.236 0.000173777 130.435 29.1992 130.435 65.2178V134.783C130.434 170.802 101.236 200 65.2178 200C29.1993 200 0.000188856 170.802 0 134.783V65.2178C0 29.1991 29.1991 0 65.2178 0ZM65.2178 7.24609C33.2012 7.24609 7.24609 33.2012 7.24609 65.2178V134.783C7.24628 166.8 33.2013 192.754 65.2178 192.754C97.2341 192.754 123.188 166.799 123.188 134.783V65.2178C123.188 33.2013 97.2342 7.24627 65.2178 7.24609ZM41.3135 71.3008L41.3447 72.458C41.9676 84.3664 52.1372 94.0331 64.8496 94.0332C77.5615 94.0325 87.7297 84.366 88.3525 72.458L88.3838 71.3008V56.5215H102.16V141.771H88.3838V99.5156C81.9462 104.62 73.7441 107.674 64.8496 107.674C55.9547 107.674 47.7514 104.62 41.3135 99.5156V141.771H27.5371V56.5215H41.3135V71.3008Z" fill="#21005E"/>
</svg>
