<svg width="131" height="200" viewBox="0 0 131 200" fill="none" xmlns="http://www.w3.org/2000/svg">
<path d="M65.2178 0C101.236 0 130.435 29.1983 130.436 65.2168V134.782C130.436 170.801 101.236 200 65.2178 200C29.1992 200 0 170.801 0 134.782V65.2168C0.000183746 29.1983 29.1993 3.75406e-05 65.2178 0ZM65.2178 7.24609C33.2013 7.24613 7.24725 33.2004 7.24707 65.2168V134.782C7.24707 166.799 33.2012 192.754 65.2178 192.754C97.2344 192.754 123.189 166.799 123.189 134.782V65.2168C123.189 33.2004 97.2342 7.24609 65.2178 7.24609ZM41.3135 71.2998L41.3447 72.457C41.9676 84.3654 52.1373 94.032 64.8496 94.0322C77.5615 94.0315 87.7297 84.3651 88.3525 72.457L88.3838 71.2998V56.5205H102.16V141.771H88.3838V99.5146C81.9462 104.619 73.7441 107.673 64.8496 107.673C55.9547 107.673 47.7513 104.619 41.3135 99.5146V141.771H27.5371V56.5205H41.3135V71.2998Z" fill="#F4F4F4"/>
</svg>
