<svg xmlns="http://www.w3.org/2000/svg" viewBox="0 0 400 280"><rect width="400" height="280" fill="#F3EAFF"/><svg x="71.6" y="105.0" width="256.9" height="70.0" viewBox="0 0 400 109"><path d="M339.065 85L360.706 53.9061L338.952 23.04H356.492L373.462 48.0974H365.604L382.574 23.04H400L378.36 53.9061L399.887 85H382.46L365.717 60.0565H373.349L356.606 85H339.065Z" fill="#130739"/>
<path d="M298.514 86.5C294.186 86.5 290.428 85.7786 287.238 84.336C284.049 82.8933 281.582 80.8431 279.835 78.1855C278.089 75.452 277.216 72.3008 277.216 68.7321C277.216 65.3151 277.975 62.2779 279.493 59.6203C281.012 56.8868 283.366 54.6088 286.555 52.7865C289.744 50.9641 293.769 49.6733 298.628 48.914L318.902 45.611V57.0007L301.476 59.962C298.514 60.4935 296.312 61.4426 294.87 62.8094C293.427 64.1762 292.706 65.9606 292.706 68.1626C292.706 70.2887 293.503 71.9971 295.097 73.2879C296.768 74.5028 298.818 75.1103 301.248 75.1103C304.361 75.1103 307.095 74.4649 309.448 73.174C311.878 71.8073 313.739 69.947 315.029 67.5931C316.396 65.2392 317.079 62.6575 317.079 59.8481V43.9025C317.079 41.2449 316.016 39.0429 313.89 37.2965C311.84 35.4741 309.107 34.5629 305.69 34.5629C302.501 34.5629 299.653 35.4362 297.148 37.1826C294.718 38.8531 292.933 41.093 291.794 43.9025L279.607 37.9799C280.822 34.7148 282.721 31.9053 285.302 29.5515C287.96 27.1217 291.073 25.2234 294.642 23.8566C298.211 22.4899 302.083 21.8065 306.259 21.8065C311.347 21.8065 315.827 22.7556 319.699 24.6539C323.572 26.4763 326.571 29.0579 328.697 32.3989C330.899 35.664 332 39.4985 332 43.9025V85.1332H317.877V74.5408L321.066 74.313C319.471 76.9706 317.573 79.2106 315.371 81.0329C313.169 82.7794 310.663 84.1461 307.854 85.1332C305.044 86.0444 301.931 86.5 298.514 86.5Z" fill="#130739"/>
<path d="M137.239 108.964C136.176 108.964 134.999 108.85 133.708 108.622C132.493 108.47 131.317 108.204 130.178 107.825V101.446C131.089 101.674 132.114 101.864 133.253 102.016C134.468 102.168 135.569 102.244 136.556 102.244C140.276 102.168 143.2 101.256 145.326 99.5101C147.452 97.7636 149.388 94.8783 151.135 90.8539L155.463 80.717V87.0953L129.836 23.4268H137.353L159.335 78.3252H156.602L178.698 23.4268H186.329L158.082 92.3345C157.019 94.8403 155.615 97.384 153.868 99.9656C152.122 102.547 149.882 104.673 147.148 106.344C144.491 108.09 141.188 108.964 137.239 108.964Z" fill="#130739"/>
<path d="M101.903 85.2726C96.2085 85.2726 91.0832 83.9058 86.5273 81.1723C81.9714 78.3628 78.3647 74.5663 75.7071 69.7826C73.0495 64.923 71.7207 59.4939 71.7207 53.4953C71.7207 47.4967 73.0115 42.1436 75.5932 37.4358C78.1748 32.6522 81.6677 28.8936 86.0717 26.16C90.4757 23.4265 95.4113 22.0597 100.878 22.0597C105.055 22.0597 108.813 22.819 112.154 24.3377C115.571 25.8563 118.494 27.9824 120.924 30.7159C123.43 33.3735 125.328 36.4487 126.619 39.9416C127.986 43.3585 128.669 46.9652 128.669 50.7618C128.669 51.5211 128.631 52.3184 128.555 53.1536C128.479 53.9889 128.365 54.8621 128.214 55.7733H75.7071V49.5089H124.341L121.266 51.9008C121.721 47.4967 121.076 43.5483 119.33 40.0555C117.583 36.4867 115.077 33.6772 111.812 31.6271C108.623 29.501 104.979 28.438 100.878 28.438C96.778 28.438 93.0194 29.539 89.6025 31.741C86.1856 33.8671 83.49 36.8284 81.5158 40.6249C79.5416 44.3456 78.6304 48.6737 78.7823 53.6092C78.6304 58.5448 79.5796 62.9108 81.6297 66.7074C83.6799 70.5039 86.4893 73.5032 90.0581 75.7052C93.6269 77.8313 97.5753 78.8944 101.903 78.8944C106.307 78.8944 110.142 77.8693 113.407 75.8191C116.672 73.6931 119.33 70.8836 121.38 67.3908L127.189 70.466C125.822 73.2754 123.886 75.8191 121.38 78.0971C118.874 80.2991 115.951 82.0455 112.61 83.3363C109.345 84.6272 105.776 85.2726 101.903 85.2726Z" fill="#130739"/>
<path d="M0 84.8533V0H7.40331V38.6111H55.2401V0H62.6434V84.8533H55.2401V45.4449H7.40331V84.8533H0Z" fill="#130739"/>
<path d="M195.479 0.0294961H209.118V85.2726H195.479V0.0294961Z" fill="#130739"/>
<path d="M255.717 0.0296343H269.356V85.2727H255.717V0.0296343Z" fill="#130739"/>
<path d="M232.417 51.8424C212.14 51.8424 195.479 32.8998 195.479 12.6911L209.118 12.6911C209.118 25.1235 219.426 38.2036 232.417 38.2036C245.409 38.2036 255.717 25.1234 255.717 12.6911L269.356 12.6911C269.356 32.8997 252.695 51.8424 232.417 51.8424Z" fill="url(#paint0_linear_1181_1880)"/>
<defs>
<linearGradient id="paint0_linear_1181_1880" x1="232" y1="57.5" x2="232.346" y2="12.6904" gradientUnits="userSpaceOnUse">
<stop offset="0.0159154" stop-color="#00E3FD"/>
<stop offset="0.367232" stop-color="#24038E"/>
<stop offset="0.691262" stop-color="#130739"/>
</linearGradient>
</defs></svg></svg>